#!OML:ASF X:\für Bonn\!DataBase\2005_08_12_Daniel\c3d\Daniel.ASF
:FULLY-SPECIFIED
:DEGREES
1209
root 1.95174 18.655 -1.34967 -161.547 -76.2763 153.979
lowerback 24.3846 5.55355 0.10361
upperback 4.37098 6.29626 -4.67331
thorax -8.09406 2.75987 -7.12885
lowerneck -0.691366 -0.964185 0.948344
upperneck 2.12723 -1.28974 -0.642635
head 0.74937 -0.644595 -0.361875
rclavicle -2.0276e-014 4.17448e-014
rhumerus 16.1685 19.3405 -77.9747
rradius 54.9427
rwrist -26.9791
rhand -24.0173 32.0931
rfingers 7.12502
rthumb 2.46069 2.12758
lclavicle -2.0276e-014 4.17448e-014
lhumerus -66.9625 -36.7835 99.0546
lradius 71.5843
lwrist 35.7837
lhand -10.7594 -5.77332
lfingers 7.12502
lthumb 15.2522 23.6444
rfemur 5.01778 0.383395 15.8236
rtibia 35.4764
rfoot -6.42112 -9.11046
rtoes -7.55945
lfemur -27.832 -0.0952121 -25.0502
ltibia 54.0107
lfoot 1.58733 5.85707
ltoes 3.81029
1210
root 1.97114 18.6128 -1.37042 -162.057 -76.2036 154.648
lowerback 24.2475 6.06112 0.188847
upperback 4.25389 7.00217 -4.60554
thorax -8.07082 3.10343 -7.30005
lowerneck -0.489653 -1.35992 1.02625
upperneck 2.22134 -1.82265 -0.374429
head 0.741775 -0.907697 -0.295966
rclavicle 2.0773e-014 -3.49861e-014
rhumerus 18.3651 17.8271 -76.2151
rradius 54.1243
rwrist -27.6592
rhand -23.9082 32.2867
rfingers 7.12502
rthumb 2.566 2.32239
lclavicle 2.0773e-014 -3.49861e-014
lhumerus -69.4092 -36.5836 99.4954
lradius 72.6738
lwrist 35.8
lhand -10.5794 -5.77974
lfingers 7.12502
lthumb 15.4256 23.6247
rfemur 7.04122 0.071879 15.8834
rtibia 34.578
rfoot -6.63462 -9.70569
rtoes -8.27155
lfemur -29.1459 0.210834 -24.8427
ltibia 54.1323
lfoot 2.14184 5.91478
ltoes 3.57983
1211
root 1.99029 18.5554 -1.39013 -162.465 -76.1448 155.341
lowerback 23.9608 6.55721 0.309428
upperback 4.11972 7.70768 -4.57077
thorax -7.97814 3.45109 -7.50537
lowerneck -0.309561 -1.76882 1.13877
upperneck 2.29537 -2.3737 -0.101339
head 0.732413 -1.17973 -0.233886
rclavicle 1.74434e-013 -6.2816e-014
rhumerus 20.2844 16.1635 -74.6411
rradius 53.3432
rwrist -28.1704
rhand -23.8373 32.589
rfingers 7.12502
rthumb 2.6345 2.62547
lclavicle 1.74434e-013 -6.2816e-014
lhumerus -71.6737 -36.2253 99.6612
lradius 73.6976
lwrist 35.6542
lhand -10.2702 -5.90508
lfingers 7.12502
lthumb 15.7234 23.4762
rfemur 8.96886 -0.0460851 16.0008
rtibia 33.5728
rfoot -7.314 -10.5148
rtoes -9.33662
lfemur -30.5665 0.501509 -24.6552
ltibia 54.2084
lfoot 2.85761 6.16525
ltoes 3.04195
1212
root 2.00939 18.48 -1.40984 -162.826 -76.1105 156.064
lowerback 23.596 7.03764 0.425915
upperback 3.97079 8.39705 -4.53487
thorax -7.86088 3.79424 -7.68608
lowerneck -0.168276 -2.16402 1.18202
upperneck 2.37223 -2.90738 0.223213
head 0.733296 -1.44331 -0.144842
rclavicle -1.8487e-014 2.22639e-014
rhumerus 21.8502 14.4328 -73.2219
rradius 52.6973
rwrist -28.4675
rhand -23.7858 33.0093
rfingers 7.12502
rthumb 2.68425 3.04648
lclavicle -1.8487e-014 2.22639e-014
lhumerus -73.7748 -35.765 99.6101
lradius 74.7398
lwrist 35.546
lhand -9.86468 -6.13058
lfingers 7.12502
lthumb 16.114 23.2195
rfemur 10.8356 -0.00584658 16.1913
rtibia 32.4666
rfoot -8.31957 -11.4334
rtoes -9.87908
lfemur -32.0375 0.784935 -24.4575
ltibia 54.2187
lfoot 3.84311 6.47453
ltoes 2.34859
1213
root 2.0267 18.3936 -1.42925 -163.153 -76.0874 156.839
lowerback 23.1518 7.49683 0.558222
upperback 3.8025 9.066 -4.51366
thorax -7.71817 4.13039 -7.868
lowerneck -0.0541736 -2.54876 1.19028
upperneck 2.43273 -3.42788 0.573948
head 0.736586 -1.70051 -0.0421964
rclavicle 1.45113e-013 -7.03698e-014
rhumerus 23.1116 12.6988 -71.8652
rradius 52.2227
rwrist -28.7503
rhand -23.7365 33.4112
rfingers 7.12502
rthumb 2.73184 3.44898
lclavicle 1.45113e-013 -7.03698e-014
lhumerus -75.7561 -35.2112 99.3439
lradius 75.8443
lwrist 35.4752
lhand -9.2774 -6.39163
lfingers 7.12502
lthumb 16.6794 22.9118
rfemur 12.6151 0.161679 16.4338
rtibia 31.222
rfoot -9.46806 -12.4637
rtoes -9.78822
lfemur -33.5655 1.02565 -24.2331
ltibia 54.155
lfoot 5.11881 6.70445
ltoes 1.54649
1214
root 2.04236 18.2944 -1.44741 -163.425 -76.0779 157.627
lowerback 22.6703 7.93462 0.718723
upperback 3.61906 9.71252 -4.52302
thorax -7.56134 4.45699 -8.07918
lowerneck -0.116448 -2.93105 1.22739
upperneck 2.56683 -3.94937 0.911319
head 0.793274 -1.95698 0.0480748
rclavicle 1.32888e-013 -7.63333e-014
rhumerus 24.1551 10.9386 -70.6388
rradius 51.8032
rwrist -29.0525
rhand -23.6511 33.823
rfingers 7.12502
rthumb 2.81427 3.86183
lclavicle 1.32888e-013 -7.63333e-014
lhumerus -77.6605 -34.6428 98.887
lradius 77.0459
lwrist 35.4975
lhand -8.65673 -6.69966
lfingers 7.12502
lthumb 17.2768 22.5524
rfemur 14.3177 0.433089 16.7216
rtibia 29.8335
rfoot -10.5811 -13.628
rtoes -9.00966
lfemur -35.1207 1.15256 -23.971
ltibia 54.0234
lfoot 6.56321 6.93143
ltoes 1.12483
1215
root 2.05655 18.1859 -1.46557 -163.74 -76.0736 158.504
lowerback 22.1586 8.34608 0.939599
upperback 3.42891 10.3342 -4.58306
thorax -7.37324 4.77273 -8.35712
lowerneck -0.246461 -3.29961 1.31073
upperneck 2.68633 -4.45516 1.24218
head 0.857608 -2.20461 0.12734
rclavicle -5.31749e-014 2.98177e-014
rhumerus 25.0985 9.12704 -69.6698
rradius 51.3446
rwrist -29.3099
rhand -23.5145 34.1649
rfingers 7.12502
rthumb 2.94621 4.20547
lclavicle -5.31749e-014 2.98177e-014
lhumerus -79.4635 -34.1237 98.2284
lradius 78.3556
lwrist 35.6747
lhand -8.05424 -6.95875
lfingers 7.12502
lthumb 17.8566 22.2414
rfemur 15.9627 0.872691 17.1102
rtibia 28.3244
rfoot -11.5474 -14.9004
rtoes -8.09427
lfemur -36.7361 1.17007 -23.6335
ltibia 53.8476
lfoot 8.25826 7.26982
ltoes 0.491762
1216
root 2.06852 18.0663 -1.48279 -164.031 -76.0912 159.394
lowerback 21.6062 8.72925 1.16281
upperback 3.2238 10.9201 -4.64848
thorax -7.17658 5.07324 -8.61655
lowerneck -0.407082 -3.65873 1.36376
upperneck 2.81546 -4.95024 1.56637
head 0.932382 -2.44638 0.208077
rclavicle -8.18993e-014 5.1684e-015
rhumerus 25.9284 7.35775 -68.837
rradius 50.9187
rwrist -29.6165
rhand -23.2319 34.3472
rfingers 7.12502
rthumb 3.21914 4.39174
lclavicle -8.18993e-014 5.1684e-015
lhumerus -81.2437 -33.5601 97.4487
lradius 79.8038
lwrist 35.9207
lhand -7.4622 -7.15702
lfingers 7.12502
lthumb 18.4263 21.9903
rfemur 17.5344 1.46065 17.5904
rtibia 26.7543
rfoot -12.3038 -16.3658
rtoes -7.50259
lfemur -38.3878 1.09402 -23.26
ltibia 53.672
lfoot 10.2124 7.57588
ltoes -0.383551
1217
root 2.07993 17.9321 -1.4993 -164.402 -76.1397 160.369
lowerback 21.0003 9.08242 1.41553
upperback 3.04747 11.4712 -4.72487
thorax -6.90989 5.36165 -8.86951
lowerneck -0.583083 -4.00602 1.47773
upperneck 2.87913 -5.42921 1.84253
head 0.987958 -2.68004 0.264209
rclavicle -9.36276e-014 2.38542e-015
rhumerus 26.7472 5.62644 -68.057
rradius 50.49
rwrist -29.9759
rhand -22.9301 34.3857
rfingers 7.12502
rthumb 3.51062 4.43487
lclavicle -9.36276e-014 2.38542e-015
lhumerus -82.8774 -32.9682 96.5487
lradius 81.32
lwrist 36.2194
lhand -7.11157 -7.29133
lfingers 7.12502
lthumb 18.7635 21.8237
rfemur 19.0283 2.20223 18.1835
rtibia 25.1588
rfoot -12.9777 -18.1058
rtoes -7.61807
lfemur -39.9933 0.982648 -22.8602
ltibia 53.5447
lfoot 12.3518 7.69396
ltoes -0.220485
